<svg 
          width="16" 
          height="16" fill="none" 
          xmlns="http://www.w3.org/2000/svg">
          <path d="M 8.014676986202117 0.000013006698909775873 C 10.152386573053175 0.0038517133943626173 12.093290144397365 0.8462381054604211 13.526257914881551 2.2156563541330767 L 14.67835457094254 1.0635606195826344 C 15.166096502734769 0.5758513182321896 16 0.9212704334557051 16 1.6110118162614386 L 16 5.935491921123691 C 16 6.363072227974002 15.653387100465835 6.709684850268022 15.225806451612902 6.709684850268022 L 10.901322887789819 6.709684850268022 C 10.211580953290387 6.709684850268022 9.866161315671858 5.875782512223481 10.353871007119455 5.388040970554191 L 11.700645200667843 4.041268100339502 C 10.705032287105437 3.109043034119179 9.416741648027973 2.592656024915737 8.04806420110887 2.5808495828539586 C 5.067483471285911 2.555107668667474 2.555064409009872 4.967202428163617 2.580838603358115 8.046715975896301 C 2.6052902167843235 10.968036123431446 4.973677358319683 13.419356902852229 8 13.419356902852229 C 9.32667738391507 13.419356902852229 10.580548317201677 12.945873426846257 11.568677348475303 12.078841853914318 C 11.72167734945974 11.944616162084143 11.952742238198557 11.952777731119555 12.096677718623992 12.096680840716767 L 13.376096663936492 13.376098762679321 C 13.533257961273193 13.533259934309736 13.525483931264569 13.789485976722613 13.360548450100806 13.938453600489906 C 11.942000112225932 15.219775177920107 10.062128989927231 16 8 16 C 3.581741825226815 16 0.00003225828274352579 12.418293526076297 2.166952209068445e-10 8.000071371698207 C -0.00003225784935308397 3.5868811681528907 3.6014832527406755 -0.00789021293992359 8.014676986202117 0.000013006698909775873 Z" fill="rgb(58.00000034272671,54.00000058114529,115.00000074505806)"/>
        </svg>